<svg xmlns="http://www.w3.org/2000/svg" width="21.327" height="21.327" viewBox="0 0 21.327 21.327">
  <path id="Icon_material-library-books" data-name="Icon material-library-books" d="M5.133,7.265H3V22.195a2.139,2.139,0,0,0,2.133,2.133H20.062V22.195H5.133ZM22.195,3H9.4A2.139,2.139,0,0,0,7.265,5.133v12.8A2.139,2.139,0,0,0,9.4,20.062h12.8a2.139,2.139,0,0,0,2.133-2.133V5.133A2.139,2.139,0,0,0,22.195,3Zm-1.066,9.6H10.465V10.465H21.128Zm-4.265,4.265h-6.4V14.73h6.4Zm4.265-8.531H10.465V6.2H21.128Z" transform="translate(-3 -3)" fill="#777afc"/>
</svg>
