<svg xmlns="http://www.w3.org/2000/svg" width="16.733" height="15.523" viewBox="0 0 16.733 15.523">
  <g id="Icon_ionic-ios-briefcase" data-name="Icon ionic-ios-briefcase" transform="translate(0.5 0.5)">
    <path id="Path_63" data-name="Path 63" d="M4.585,24.222H17.9a1.209,1.209,0,0,0,1.21-1.21V15.75H3.375v7.261A1.209,1.209,0,0,0,4.585,24.222Z" transform="translate(-3.375 -9.699)" fill="none" stroke="#777afc" stroke-width="1"/>
    <path id="Path_64" data-name="Path 64" d="M17.9,6.92h-.3v-.3a.3.3,0,0,0-.3-.3h-1.21a.3.3,0,0,0-.3.3v.3H14.721V5.71a1.214,1.214,0,0,0-1.21-1.21H8.972a1.214,1.214,0,0,0-1.21,1.21V6.92H6.7v-.3a.3.3,0,0,0-.3-.3H5.19a.3.3,0,0,0-.3.3v.3h-.3a1.209,1.209,0,0,0-1.21,1.21V9.643H19.108V8.131A1.209,1.209,0,0,0,17.9,6.92Zm-4.236,0H8.821V5.862a.3.3,0,0,1,.3-.3h4.236a.3.3,0,0,1,.3.3Z" transform="translate(-3.375 -4.5)" fill="none" stroke="#777afc" stroke-width="1"/>
  </g>
</svg>
