<svg id="Add_Button" data-name="Add Button" xmlns="http://www.w3.org/2000/svg" width="23.193" height="30.924" viewBox="0 0 23.193 30.924">
  <path id="Icon_awesome-file-download" data-name="Icon awesome-file-download" d="M13.529,8.214V0H1.45A1.446,1.446,0,0,0,0,1.45V29.474a1.446,1.446,0,0,0,1.45,1.45H21.743a1.446,1.446,0,0,0,1.45-1.45V9.664H14.979A1.454,1.454,0,0,1,13.529,8.214ZM18.146,20.98l-5.824,5.78a1.03,1.03,0,0,1-1.452,0L5.047,20.98a.966.966,0,0,1,.679-1.652H9.664V14.5a.966.966,0,0,1,.966-.966h1.933a.966.966,0,0,1,.966.966v4.832h3.937A.967.967,0,0,1,18.146,20.98ZM22.77,6.342,16.857.423A1.448,1.448,0,0,0,15.83,0h-.368V7.731h7.731V7.362A1.445,1.445,0,0,0,22.77,6.342Z" fill="#777afc"/>
</svg>
