<svg xmlns="http://www.w3.org/2000/svg" width="19.292" height="19.292" viewBox="0 0 19.292 19.292">
  <g id="Icon_feather-eye-off" data-name="Icon feather-eye-off" transform="translate(-0.439 -0.439)">
    <path id="Path_3191" data-name="Path 3191" d="M14.722,16.88a7.86,7.86,0,0,1-4.636,1.608c-5.463,0-8.585-6.244-8.585-6.244A14.4,14.4,0,0,1,5.449,7.608m3-1.42A7.118,7.118,0,0,1,10.085,6c5.463,0,8.585,6.244,8.585,6.244a14.439,14.439,0,0,1-1.686,2.49M11.74,13.9a2.341,2.341,0,1,1-3.309-3.309" transform="translate(0 -2.158)" fill="none" stroke="#30346b" stroke-linecap="round" stroke-linejoin="round" stroke-width="1.5"/>
    <path id="Path_3192" data-name="Path 3192" d="M1.5,1.5,18.671,18.671" fill="none" stroke="#30346b" stroke-linecap="round" stroke-linejoin="round" stroke-width="1.5"/>
  </g>
</svg>
