<svg xmlns="http://www.w3.org/2000/svg" width="22.188" height="18.723" viewBox="0 0 22.188 18.723">
  <path id="Icon_awesome-tasks" data-name="Icon awesome-tasks" d="M6.05,2.4a.52.52,0,0,0-.737,0L2.554,5.144,1.57,4.186a.52.52,0,0,0-.737,0l-.68.681a.52.52,0,0,0,0,.737L2.215,7.658a.554.554,0,0,0,.763,0l.676-.677L6.783,3.853a.524.524,0,0,0,0-.737Zm0,6.9a.52.52,0,0,0-.737,0l-2.76,2.761L1.57,11.1a.52.52,0,0,0-.737,0l-.68.68a.52.52,0,0,0,0,.737L2.21,14.578a.553.553,0,0,0,.763,0l.68-.68,3.129-3.13a.52.52,0,0,0,0-.732ZM2.774,16.81a2.08,2.08,0,1,0,0,4.16,2.08,2.08,0,0,0,0-4.16Zm18.721.693H9.014a.693.693,0,0,0-.693.693v1.387a.693.693,0,0,0,.693.693H21.495a.693.693,0,0,0,.693-.693V18.2A.693.693,0,0,0,21.495,17.5Zm0-13.868H9.014a.693.693,0,0,0-.693.693V5.716a.693.693,0,0,0,.693.693H21.495a.693.693,0,0,0,.693-.693V4.329A.693.693,0,0,0,21.495,3.636Zm0,6.934H9.014a.693.693,0,0,0-.693.693V12.65a.693.693,0,0,0,.693.693H21.495a.693.693,0,0,0,.693-.693V11.263A.693.693,0,0,0,21.495,10.57Z" transform="translate(0 -2.248)" fill="#30346b"/>
</svg>
