<svg xmlns="http://www.w3.org/2000/svg" width="24.884" height="19.907" viewBox="0 0 24.884 19.907">
  <path id="Icon_awesome-robot" data-name="Icon awesome-robot" d="M0,9.953V14.93a1.243,1.243,0,0,0,1.244,1.244H2.488V8.709H1.244A1.243,1.243,0,0,0,0,9.953ZM18.041,3.733H13.686V1.244a1.244,1.244,0,0,0-2.488,0V3.733H6.843a3.11,3.11,0,0,0-3.11,3.11V17.419a2.491,2.491,0,0,0,2.488,2.488H18.663a2.491,2.491,0,0,0,2.488-2.488V6.843A3.11,3.11,0,0,0,18.041,3.733ZM9.953,16.174H7.465V14.93H9.953ZM8.709,11.509a1.555,1.555,0,1,1,1.555-1.555A1.555,1.555,0,0,1,8.709,11.509Zm4.977,4.666H11.2V14.93h2.488Zm3.733,0H14.93V14.93h2.488Zm-1.244-4.666A1.555,1.555,0,1,1,17.73,9.953,1.555,1.555,0,0,1,16.174,11.509Zm7.465-2.8H22.4v7.465h1.244a1.243,1.243,0,0,0,1.244-1.244V9.953A1.243,1.243,0,0,0,23.639,8.709Z" fill="#777afc"/>
</svg>
