<svg xmlns="http://www.w3.org/2000/svg" width="24.055" height="16.838" viewBox="0 0 24.055 16.838">
  <path id="Icon_awesome-users" data-name="Icon awesome-users" d="M3.608,9.466A2.405,2.405,0,1,0,1.2,7.061,2.408,2.408,0,0,0,3.608,9.466Zm16.838,0a2.405,2.405,0,1,0-2.405-2.405A2.408,2.408,0,0,0,20.446,9.466Zm1.2,1.2H19.244a2.4,2.4,0,0,0-1.7.7,5.5,5.5,0,0,1,2.823,4.112h2.481a1.2,1.2,0,0,0,1.2-1.2v-1.2A2.408,2.408,0,0,0,21.649,10.669Zm-9.622,0a4.21,4.21,0,1,0-4.21-4.21A4.207,4.207,0,0,0,12.027,10.669Zm2.887,1.2H14.6a5.812,5.812,0,0,1-5.149,0H9.141a4.331,4.331,0,0,0-4.33,4.33v1.082a1.8,1.8,0,0,0,1.8,1.8H17.44a1.8,1.8,0,0,0,1.8-1.8V16.2A4.331,4.331,0,0,0,14.914,11.872Zm-8.408-.5a2.4,2.4,0,0,0-1.7-.7H2.405A2.408,2.408,0,0,0,0,13.075v1.2a1.2,1.2,0,0,0,1.2,1.2H3.68A5.512,5.512,0,0,1,6.506,11.368Z" transform="translate(0 -2.25)" fill="#777afc"/>
</svg>
