<svg xmlns="http://www.w3.org/2000/svg" width="23.171" height="14.362" viewBox="0 0 23.171 14.362">
  <g id="Group_1063" data-name="Group 1063" transform="translate(-61.398 -43.186)">
    <path id="Icon_ionic-ios-arrow-round-up" data-name="Icon ionic-ios-arrow-round-up" d="M19.988,12.723a.606.606,0,0,1-.854,0L16.308,9.91V20.645a.6.6,0,0,1-1.207,0V9.91l-2.826,2.822a.611.611,0,0,1-.854,0,.6.6,0,0,1,0-.849l3.852-3.824h0a.678.678,0,0,1,.19-.125.576.576,0,0,1,.232-.046.6.6,0,0,1,.422.172l3.852,3.824A.591.591,0,0,1,19.988,12.723Z" transform="translate(50.713 35.804)" fill="#777afc" stroke="#777afc" stroke-width="1"/>
    <path id="Icon_ionic-ios-arrow-round-up-2" data-name="Icon ionic-ios-arrow-round-up" d="M19.988,16.4a.606.606,0,0,0-.854,0l-2.826,2.817V8.481a.6.6,0,0,0-1.207,0V19.216l-2.826-2.822a.611.611,0,0,0-.854,0,.6.6,0,0,0,0,.849l3.852,3.824h0a.677.677,0,0,0,.19.125.576.576,0,0,0,.232.046.6.6,0,0,0,.422-.172l3.852-3.824A.591.591,0,0,0,19.988,16.4Z" transform="translate(63.91 35.804)" fill="#777afc" stroke="#777afc" stroke-width="1"/>
  </g>
</svg>
