<svg xmlns="http://www.w3.org/2000/svg" xmlns:xlink="http://www.w3.org/1999/xlink" width="64" height="63" viewBox="0 0 64 63">
  <defs>
    <filter id="Rectangle_13" x="0" y="0" width="64" height="63" filterUnits="userSpaceOnUse">
      <feOffset dy="3" input="SourceAlpha"/>
      <feGaussianBlur stdDeviation="3" result="blur"/>
      <feFlood flood-opacity="0.282"/>
      <feComposite operator="in" in2="blur"/>
      <feComposite in="SourceGraphic"/>
    </filter>
  </defs>
  <g id="Add_Button" data-name="Add Button" transform="translate(9 6)">
    <g transform="matrix(1, 0, 0, 1, -9, -6)" filter="url(#Rectangle_13)">
      <rect id="Rectangle_13-2" data-name="Rectangle 13" width="46" height="45" rx="22.5" transform="translate(9 6)" fill="#777afc"/>
    </g>
    <g id="Icon_feather-user-plus" data-name="Icon feather-user-plus" transform="translate(14.471 14.534)">
      <path id="Path_3164" data-name="Path 3164" d="M30,12v5.3" transform="translate(-8.861 -5.473)" fill="none" stroke="#fff" stroke-linecap="round" stroke-linejoin="round" stroke-width="1.75"/>
      <path id="Path_3165" data-name="Path 3165" d="M31.158,16.5H25.5" transform="translate(-7.19 -7.322)" fill="none" stroke="#fff" stroke-linecap="round" stroke-linejoin="round" stroke-width="1.75"/>
      <path id="Icon_awesome-robot" data-name="Icon awesome-robot" d="M0,8.472v4.236a1.057,1.057,0,0,0,1.057,1.059H2.114V7.413H1.057A1.057,1.057,0,0,0,0,8.472ZM15.329,3.177h-3.7V1.059a1.057,1.057,0,1,0-2.114,0V3.177h-3.7A2.644,2.644,0,0,0,3.171,5.824v9a2.118,2.118,0,0,0,2.114,2.118H15.857a2.118,2.118,0,0,0,2.114-2.118v-9A2.644,2.644,0,0,0,15.329,3.177ZM8.457,13.767H6.343V12.708H8.457ZM7.4,9.8A1.324,1.324,0,1,1,8.721,8.472,1.322,1.322,0,0,1,7.4,9.8Zm4.229,3.971H9.514V12.708h2.114Zm3.171,0H12.686V12.708H14.8ZM13.743,9.8a1.324,1.324,0,1,1,1.321-1.324A1.322,1.322,0,0,1,13.743,9.8Zm6.343-2.383H19.029v6.354h1.057a1.057,1.057,0,0,0,1.057-1.059V8.472A1.057,1.057,0,0,0,20.086,7.413Z" transform="translate(-6.554 -1.945)" fill="#fff"/>
    </g>
  </g>
</svg>
