<svg xmlns="http://www.w3.org/2000/svg" width="18.296" height="18.296" viewBox="0 0 18.296 18.296">
  <path id="Icon_metro-chart-dots" data-name="Icon metro-chart-dots" d="M4.858,17.937H20.867v2.287H2.571V1.928H4.858Zm2.859-1.143a1.715,1.715,0,1,1,0-3.43c.051,0,.1,0,.15.007L9.71,10.3a1.715,1.715,0,1,1,2.874,0l1.844,3.073q.075-.007.15-.007c.038,0,.076,0,.113,0l3.044-5.327a1.715,1.715,0,1,1,1.417.748c-.038,0-.076,0-.113,0l-3.044,5.327a1.715,1.715,0,1,1-2.854.031L11.3,11.069c-.049,0-.1.007-.15.007s-.1,0-.15-.007L9.153,14.142a1.715,1.715,0,0,1-1.437,2.651Z" transform="translate(-2.571 -1.928)" fill="#30346b"/>
</svg>
