<svg xmlns="http://www.w3.org/2000/svg" width="11.935" height="13.122" viewBox="0 0 11.935 13.122">
  <g id="Group_828" data-name="Group 828" transform="translate(-215.375 -113.543)">
    <g id="Group_765" data-name="Group 765" transform="translate(49.487 -300.832)">
      <g id="Icon_feather-trash-2" data-name="Icon feather-trash-2" transform="translate(166.513 415)">
        <path id="Path_11" data-name="Path 11" d="M4.5,9H15.185" transform="translate(-4.5 -6.626)" fill="#ffff" stroke="#30346b" stroke-linecap="round" stroke-linejoin="round" stroke-width="1.25"/>
        <path id="Path_12" data-name="Path 12" d="M15.81,5.374v8.31a1.187,1.187,0,0,1-1.187,1.187H8.687A1.187,1.187,0,0,1,7.5,13.685V5.374m1.781,0V4.187A1.187,1.187,0,0,1,10.468,3h2.374a1.187,1.187,0,0,1,1.187,1.187V5.374" transform="translate(-6.313 -3)" fill="#ffff" stroke="#30346b" stroke-linecap="round" stroke-linejoin="round" stroke-width="1.25"/>
        <path id="Path_13" data-name="Path 13" d="M15,16.5v3.562" transform="translate(-10.845 -11.158)" fill="#ffff" stroke="#30346b" stroke-linecap="round" stroke-linejoin="round" stroke-width="1.25"/>
        <path id="Path_14" data-name="Path 14" d="M21,16.5v3.562" transform="translate(-14.471 -11.158)" fill="#ffff" stroke="#30346b" stroke-linecap="round" stroke-linejoin="round" stroke-width="1.25"/>
      </g>
    </g>
  </g>
</svg>
