<svg xmlns="http://www.w3.org/2000/svg" width="14.706" height="14.706" viewBox="0 0 14.706 14.706">
  <g id="Group_830" data-name="Group 830" transform="translate(-218.048 -199.741)">
    <g id="Icon_feather-copy" data-name="Icon feather-copy" transform="translate(215.673 197.366)">
      <path id="Path_3196" data-name="Path 3196" d="M14.846,13.5H20.9a1.346,1.346,0,0,1,1.346,1.346V20.9A1.346,1.346,0,0,1,20.9,22.246H14.846A1.346,1.346,0,0,1,13.5,20.9V14.846A1.346,1.346,0,0,1,14.846,13.5Z" transform="translate(-5.791 -5.791)" fill="none" stroke="#30346b" stroke-linecap="round" stroke-linejoin="round" stroke-width="1.25"/>
      <path id="Path_3197" data-name="Path 3197" d="M5.018,11.746H4.346A1.346,1.346,0,0,1,3,10.4V4.346A1.346,1.346,0,0,1,4.346,3H10.4a1.346,1.346,0,0,1,1.346,1.346v.673" transform="translate(0)" fill="none" stroke="#30346b" stroke-linecap="round" stroke-linejoin="round" stroke-width="1.25"/>
    </g>
  </g>
</svg>
