<svg xmlns="http://www.w3.org/2000/svg" width="15.685" height="19.303" viewBox="0 0 15.685 19.303">
  <path id="Icon_awesome-running" data-name="Icon awesome-running" d="M10.255,3.62a1.81,1.81,0,1,0-1.81-1.81A1.81,1.81,0,0,0,10.255,3.62ZM4.286,11.97l-.558,1.3H1.207a1.207,1.207,0,0,0,0,2.413h2.92a1.806,1.806,0,0,0,1.663-1.1l.331-.774-.4-.238A3.59,3.59,0,0,1,4.286,11.97ZM14.478,8.445h-1.66l-.983-2.008A3.618,3.618,0,0,0,9.506,4.517l-2.68-.8a3.6,3.6,0,0,0-3.048.646l-1.5,1.147A1.206,1.206,0,0,0,3.751,7.427l1.5-1.147A1.174,1.174,0,0,1,6.2,6.049l.554.165L5.342,9.509a2.419,2.419,0,0,0,.992,3.028l3.2,1.892L8.5,17.736a1.206,1.206,0,1,0,2.3.721L12,14.647a1.817,1.817,0,0,0-.816-2.051L8.872,11.233l1.18-2.951.764,1.562a1.821,1.821,0,0,0,1.625,1.014h2.036a1.206,1.206,0,1,0,0-2.413Z" fill="#a60000"/>
</svg>
