<svg xmlns="http://www.w3.org/2000/svg" width="13.456" height="13.454" viewBox="0 0 13.456 13.454">
  <g id="Group_829" data-name="Group 829" transform="translate(-216 -158.567)">
    <path id="Icon_ionic-ios-move" data-name="Icon ionic-ios-move" d="M15.558,8.672,13.175,6.289a.417.417,0,0,0-.588,0l-.006.006a.417.417,0,0,0,0,.588l1.648,1.648-4.856.015L9.387,3.69l1.648,1.648a.417.417,0,0,0,.588,0l.006-.006a.417.417,0,0,0,0-.588L9.246,2.361a.417.417,0,0,0-.588,0L6.275,4.744a.417.417,0,0,0,0,.588l.006.006a.417.417,0,0,0,.588,0L8.517,3.69l.015,4.856L3.676,8.531,5.324,6.884a.417.417,0,0,0,0-.588l-.006-.006a.417.417,0,0,0-.588,0L2.347,8.672a.417.417,0,0,0,0,.588L4.73,11.643a.417.417,0,0,0,.588,0l.006-.006a.417.417,0,0,0,0-.588L3.676,9.4l4.856-.015-.015,4.856L6.87,12.595a.417.417,0,0,0-.588,0l-.006.006a.417.417,0,0,0,0,.588l2.383,2.383a.417.417,0,0,0,.588,0l2.383-2.383a.417.417,0,0,0,0-.588l-.006-.006a.417.417,0,0,0-.588,0L9.387,14.242,9.372,9.386l4.856.015-1.648,1.648a.417.417,0,0,0,0,.588l.006.006a.417.417,0,0,0,.588,0L15.558,9.26A.411.411,0,0,0,15.558,8.672Z" transform="translate(213.774 156.328)" fill="#30346b"/>
  </g>
</svg>
