<svg xmlns="http://www.w3.org/2000/svg" width="23.699" height="22.514" viewBox="0 0 23.699 22.514">
  <g id="Group_803" data-name="Group 803" transform="translate(-196.222 -1053.444)">
    <!-- <g id="Group_802" data-name="Group 802" transform="translate(196.222 1053.444)">
      <ellipse id="Ellipse_82" data-name="Ellipse 82" cx="11.849" cy="11.257" rx="11.849" ry="11.257" fill="#0c8411"/>
    </g> -->
    <path id="Icon_awesome-check" data-name="Icon awesome-check" d="M4.358,13.957.188,9.787a.642.642,0,0,1,0-.907L1.1,7.973a.641.641,0,0,1,.907,0l2.809,2.809,6.016-6.016a.642.642,0,0,1,.907,0l.907.907a.642.642,0,0,1,0,.907L5.265,13.957A.641.641,0,0,1,4.358,13.957Z" transform="translate(201.656 1055.34)" fill="#0C8411"/>
  </g>
</svg>
