<svg width="252" height="79" viewBox="0 0 252 79" fill="none" xmlns="http://www.w3.org/2000/svg">
<path d="M82.5677 56L75.1243 42.4896H73.034V56H64.316V20.2102H78.948C81.769 20.2102 84.1652 20.703 86.1365 21.6887C88.1418 22.6744 89.6373 24.0339 90.623 25.7673C91.6086 27.4667 92.1015 29.3701 92.1015 31.4774C92.1015 33.8565 91.4217 35.9808 90.0622 37.8502C88.7366 39.7196 86.7653 41.0451 84.1482 41.8268L92.4074 56H82.5677ZM73.034 36.3207H78.4381C80.0356 36.3207 81.2252 35.9298 82.0069 35.1481C82.8226 34.3664 83.2305 33.2618 83.2305 31.8342C83.2305 30.4747 82.8226 29.4041 82.0069 28.6223C81.2252 27.8406 80.0356 27.4497 78.4381 27.4497H73.034V36.3207ZM119.854 49.6782H106.496L104.355 56H95.2289L108.179 20.2102H118.273L131.223 56H121.995L119.854 49.6782ZM117.61 42.9484L113.175 29.8459L108.79 42.9484H117.61ZM162.44 31.7323C162.44 33.8056 161.964 35.7089 161.012 37.4423C160.06 39.1417 158.599 40.5183 156.628 41.5719C154.656 42.6256 152.209 43.1524 149.286 43.1524H143.882V56H135.164V20.2102H149.286C152.141 20.2102 154.554 20.703 156.526 21.6887C158.497 22.6744 159.975 24.0339 160.961 25.7673C161.947 27.5007 162.44 29.489 162.44 31.7323ZM148.623 36.2187C150.289 36.2187 151.529 35.8279 152.345 35.0461C153.161 34.2644 153.569 33.1598 153.569 31.7323C153.569 30.3048 153.161 29.2001 152.345 28.4184C151.529 27.6367 150.289 27.2458 148.623 27.2458H143.882V36.2187H148.623ZM188.646 37.6463C190.719 38.0881 192.385 39.1248 193.642 40.7562C194.9 42.3537 195.528 44.189 195.528 46.2623C195.528 49.2533 194.475 51.6325 192.368 53.3999C190.294 55.1333 187.388 56 183.65 56H166.978V20.2102H183.089C186.725 20.2102 189.564 21.0429 191.603 22.7083C193.676 24.3738 194.713 26.634 194.713 29.489C194.713 31.5963 194.152 33.3467 193.03 34.7402C191.943 36.1338 190.481 37.1024 188.646 37.6463ZM175.696 34.6893H181.406C182.834 34.6893 183.921 34.3834 184.669 33.7716C185.451 33.1258 185.842 32.1911 185.842 30.9675C185.842 29.744 185.451 28.8093 184.669 28.1635C183.921 27.5177 182.834 27.1948 181.406 27.1948H175.696V34.6893ZM182.12 48.9644C183.582 48.9644 184.703 48.6415 185.485 47.9957C186.301 47.316 186.708 46.3473 186.708 45.0897C186.708 43.8321 186.284 42.8465 185.434 42.1327C184.618 41.419 183.48 41.0621 182.018 41.0621H175.696V48.9644H182.12ZM213.535 56.4079C210.747 56.4079 208.232 55.8131 205.989 54.6235C203.78 53.4339 202.029 51.7345 200.738 49.5252C199.48 47.316 198.852 44.7328 198.852 41.7758C198.852 38.8528 199.497 36.2867 200.789 34.0775C202.08 31.8342 203.848 30.1178 206.091 28.9282C208.334 27.7386 210.849 27.1438 213.636 27.1438C216.424 27.1438 218.939 27.7386 221.182 28.9282C223.425 30.1178 225.193 31.8342 226.484 34.0775C227.776 36.2867 228.421 38.8528 228.421 41.7758C228.421 44.6989 227.759 47.282 226.433 49.5252C225.142 51.7345 223.357 53.4339 221.08 54.6235C218.837 55.8131 216.322 56.4079 213.535 56.4079ZM213.535 48.8624C215.2 48.8624 216.61 48.2506 217.766 47.0271C218.956 45.8035 219.55 44.0531 219.55 41.7758C219.55 39.4986 218.973 37.7482 217.817 36.5246C216.695 35.3011 215.302 34.6893 213.636 34.6893C211.937 34.6893 210.527 35.3011 209.405 36.5246C208.283 37.7142 207.722 39.4646 207.722 41.7758C207.722 44.0531 208.266 45.8035 209.354 47.0271C210.476 48.2506 211.869 48.8624 213.535 48.8624ZM248.902 48.6075V56H244.467C241.306 56 238.842 55.2353 237.074 53.7058C235.307 52.1423 234.423 49.6102 234.423 46.1094V34.7912H230.956V27.5517H234.423V20.6181H243.141V27.5517H248.851V34.7912H243.141V46.2113C243.141 47.061 243.345 47.6728 243.753 48.0467C244.161 48.4206 244.84 48.6075 245.792 48.6075H248.902Z" fill="white"/>
<path d="M67.7817 62.7822V72.3534H65.862V62.7822H67.7817ZM82.5268 72.3534H80.6071L76.2603 65.7852V72.3534H74.3406V62.7685H76.2603L80.6071 69.3504V62.7685H82.5268V72.3534ZM95.5994 62.7822V64.3317H93.0489V72.3534H91.1292V64.3317H88.5787V62.7822H95.5994ZM103.582 64.3317V66.7314H106.804V68.2534H103.582V70.7902H107.216V72.3534H101.662V62.7685H107.216V64.3317H103.582ZM115.542 70.8313H118.696V72.3534H113.622V62.7822H115.542V70.8313ZM126.498 70.8313H129.652V72.3534H124.578V62.7822H126.498V70.8313ZM137.454 62.7822V72.3534H135.534V62.7822H137.454ZM150.677 65.6618C150.458 65.2596 150.156 64.9533 149.772 64.7431C149.388 64.5328 148.94 64.4277 148.428 64.4277C147.861 64.4277 147.359 64.5557 146.92 64.8117C146.481 65.0676 146.138 65.4333 145.891 65.9086C145.645 66.384 145.521 66.9325 145.521 67.5541C145.521 68.194 145.645 68.7516 145.891 69.227C146.147 69.7024 146.499 70.068 146.947 70.324C147.395 70.5799 147.916 70.7079 148.51 70.7079C149.242 70.7079 149.84 70.516 150.307 70.132C150.773 69.7389 151.079 69.195 151.225 68.5003H147.934V67.033H153.118V68.7059C152.99 69.3733 152.715 69.9903 152.295 70.5571C151.874 71.1239 151.331 71.5809 150.663 71.9283C150.005 72.2665 149.265 72.4357 148.442 72.4357C147.519 72.4357 146.682 72.23 145.932 71.8186C145.192 71.3981 144.607 70.8176 144.177 70.0772C143.757 69.3367 143.547 68.4957 143.547 67.5541C143.547 66.6125 143.757 65.7715 144.177 65.0311C144.607 64.2814 145.192 63.701 145.932 63.2896C146.682 62.8691 147.514 62.6588 148.428 62.6588C149.507 62.6588 150.444 62.9239 151.239 63.4541C152.034 63.9752 152.583 64.7111 152.885 65.6618H150.677ZM161.12 64.3317V66.7314H164.342V68.2534H161.12V70.7902H164.754V72.3534H159.2V62.7685H164.754V64.3317H161.12ZM179.347 72.3534H177.427L173.08 65.7852V72.3534H171.16V62.7685H173.08L177.427 69.3504V62.7685H179.347V72.3534ZM192.419 62.7822V64.3317H189.869V72.3534H187.949V64.3317H185.398V62.7822H192.419ZM211.348 72.3534L209.236 68.6237H208.331V72.3534H206.412V62.7822H210.004C210.745 62.7822 211.375 62.9148 211.896 63.1799C212.417 63.4359 212.806 63.7878 213.062 64.2357C213.327 64.6745 213.46 65.1682 213.46 65.7167C213.46 66.3474 213.277 66.9188 212.911 67.4307C212.545 67.9335 212.002 68.2809 211.279 68.4728L213.569 72.3534H211.348ZM208.331 67.1839H209.936C210.457 67.1839 210.845 67.0605 211.101 66.8136C211.357 66.5577 211.485 66.2057 211.485 65.7578C211.485 65.319 211.357 64.9808 211.101 64.7431C210.845 64.4963 210.457 64.3729 209.936 64.3729H208.331V67.1839ZM226.838 65.7441C226.838 66.256 226.714 66.7359 226.467 67.1839C226.23 67.6318 225.85 67.9929 225.329 68.2671C224.817 68.5414 224.168 68.6785 223.382 68.6785H221.778V72.3534H219.858V62.7822H223.382C224.123 62.7822 224.753 62.9102 225.274 63.1662C225.795 63.4221 226.184 63.7741 226.44 64.222C226.705 64.67 226.838 65.1773 226.838 65.7441ZM223.3 67.129C223.83 67.129 224.223 67.0102 224.479 66.7725C224.735 66.5257 224.863 66.1829 224.863 65.7441C224.863 64.8117 224.342 64.3454 223.3 64.3454H221.778V67.129H223.3ZM238.732 70.5297H234.92L234.289 72.3534H232.273L235.715 62.7685H237.95L241.392 72.3534H239.362L238.732 70.5297ZM238.211 68.9939L236.826 64.9899L235.441 68.9939H238.211Z" fill="white"/>
<g clip-path="url(#clip0_91_49)">
<path d="M24.6818 13.6525V17.8766H30.1334C29.508 15.4511 27.3002 13.6525 24.6818 13.6525Z" fill="#30346B"/>
<path d="M26.6483 56.8333C30.0883 56.8333 32.8872 59.6322 32.8872 63.0722V70.4904C34.9487 68.7261 36.2603 66.1076 36.2603 63.1889V46.0311C35.039 46.4325 33.7352 46.6519 32.3816 46.6519H24.6818V56.8333H26.6483Z" fill="#30346B"/>
<path d="M32.3801 20.6882H24.6802V25.4506H31.0763C33.9343 25.4506 36.2588 27.7751 36.2588 30.6331V33.9004C36.2588 36.7584 33.9343 39.0829 31.0763 39.0829H24.6802V43.8453H32.3801C37.6792 43.8453 41.9905 39.534 41.9905 34.2349V30.3017C41.992 24.9994 37.6792 20.6882 32.3801 20.6882Z" fill="#30346B"/>
<path d="M39.0685 47.4624V44.6946C41.4303 43.1792 43.2475 40.8874 44.1577 38.1819C47.0889 37.8069 49.3635 35.2973 49.3635 32.265C49.3635 30.6718 48.7427 29.172 47.6163 28.0456C46.6703 27.0996 45.463 26.5131 44.1577 26.3482C42.5661 21.6184 38.2004 18.152 33.0055 17.8938C32.4174 14.3574 29.6215 11.5584 26.0882 10.9625V9.85634C27.6861 9.27913 28.8327 7.74663 28.8327 5.95275C28.8312 3.66412 26.9688 1.80334 24.6817 1.80334C22.3931 1.80334 20.5323 3.66412 20.5323 5.95275C20.5323 7.74819 21.6774 9.27913 23.2768 9.85634V10.9625C19.742 11.5584 16.9477 14.3558 16.358 17.8938C11.1616 18.152 6.79588 21.6184 5.20582 26.3482C3.90048 26.5131 2.69315 27.1012 1.7472 28.0456C0.620778 29.172 0 30.6718 0 32.265C0 35.2973 2.27307 37.8053 5.20582 38.1819C6.11598 40.8874 7.9332 43.1792 10.295 44.6946V47.464L2.10971 55.6492C1.23689 56.522 0.757691 57.6811 0.757691 58.9149C0.757691 60.1487 1.23844 61.3078 2.10971 62.1806C2.98253 63.0534 4.14163 63.5326 5.37541 63.5326C6.60918 63.5326 7.76828 63.0519 8.6411 62.1806L10.2965 60.5252V63.1903C10.2965 70.0391 15.8679 75.6121 22.7183 75.6121H26.6514C33.5002 75.6121 39.0732 70.0407 39.0732 63.1903V60.5252L40.7286 62.1806C41.5999 63.0534 42.7605 63.5326 43.9943 63.5326C45.2281 63.5326 46.3872 63.0519 47.26 62.1806C48.1328 61.3078 48.612 60.1487 48.612 58.9149C48.612 57.6811 48.1313 56.522 47.26 55.6492L39.0685 47.4624ZM45.6279 30.0324C46.2238 30.6283 46.5521 31.4218 46.5521 32.2635C46.5521 33.5112 45.824 34.5925 44.7691 35.1044C44.7893 34.815 44.7893 29.7103 44.7691 29.4209C45.085 29.5734 45.3743 29.7788 45.6279 30.0324ZM4.59282 35.106C3.53952 34.5941 2.81139 33.5128 2.81139 32.265C2.81139 31.4218 3.13967 30.6298 3.73556 30.0339C3.98916 29.7803 4.2801 29.575 4.59282 29.4225C4.5726 29.7119 4.5726 34.8166 4.59282 35.106ZM10.2934 56.55L6.65119 60.1922C6.31046 60.533 5.85616 60.7212 5.37385 60.7212C4.89154 60.7212 4.43724 60.533 4.09651 60.1922C3.75578 59.8499 3.56753 59.3972 3.56753 58.9149C3.56753 58.4326 3.75578 57.9783 4.09651 57.6376L10.295 51.4391V56.55H10.2934ZM24.6817 4.61318C25.4208 4.61318 26.0213 5.21373 26.0213 5.95275C26.0213 6.69177 25.4208 7.29233 24.6817 7.29233C23.9427 7.29233 23.3422 6.69177 23.3422 5.95275C23.3422 5.21373 23.9427 4.61318 24.6817 4.61318ZM24.6817 13.6526C27.3002 13.6526 29.5079 15.4496 30.1334 17.8767H19.2301C19.8556 15.4511 22.0617 13.6526 24.6817 13.6526ZM30.0758 72.1659C29.0101 72.5751 27.8556 72.8007 26.6468 72.8007H22.7152C21.5078 72.8007 20.3519 72.5751 19.2861 72.1659V63.0721C19.2861 61.1817 20.8248 59.643 22.7152 59.643H26.6483C28.5387 59.643 30.0774 61.1802 30.0774 63.0721V72.1659H30.0758ZM36.2587 63.1888C36.2587 66.1091 34.9487 68.726 32.8857 70.4903V63.0721C32.8857 59.6321 30.0867 56.8332 26.6468 56.8332H22.7152C19.2752 56.8332 16.4763 59.6321 16.4763 63.0721V70.4903C14.4148 68.726 13.1048 66.1075 13.1048 63.1888V46.031C14.3261 46.4324 15.6299 46.6518 16.9835 46.6518H32.3816C33.7351 46.6518 35.0389 46.4324 36.2603 46.031V63.1888H36.2587ZM32.38 43.842H16.9819C11.6828 43.842 7.37154 39.5308 7.37154 34.2316V30.2984C7.37154 24.9993 11.6828 20.6881 16.9819 20.6881H32.38C37.6792 20.6881 41.9904 24.9993 41.9904 30.2984V34.2316C41.992 39.5308 37.6792 43.842 32.38 43.842ZM45.267 60.1922C44.9263 60.533 44.472 60.7212 43.9896 60.7212C43.5073 60.7212 43.053 60.533 42.7123 60.1922L39.0701 56.55V51.4376L45.2685 57.636C45.6093 57.9783 45.7975 58.431 45.7975 58.9133C45.7975 59.3972 45.6093 59.8499 45.267 60.1922Z" fill="white"/>
<path d="M32.3801 24.0596H16.982C13.542 24.0596 10.7431 26.8585 10.7431 30.2985V34.2316C10.7431 37.6716 13.542 40.4705 16.982 40.4705H32.3801C35.82 40.4705 38.6189 37.6716 38.6189 34.2316V30.2985C38.6189 26.8585 35.82 24.0596 32.3801 24.0596ZM35.8091 34.2316C35.8091 36.1219 34.2704 37.6607 32.3801 37.6607H16.982C15.0916 37.6607 13.5529 36.1219 13.5529 34.2316V30.2985C13.5529 28.4081 15.0916 26.8694 16.982 26.8694H32.3801C34.2704 26.8694 35.8091 28.4066 35.8091 30.2985V34.2316Z" fill="white"/>
<path d="M18.9392 34.3452C20.088 34.3452 21.0194 33.4139 21.0194 32.265C21.0194 31.1162 20.088 30.1849 18.9392 30.1849C17.7904 30.1849 16.8591 31.1162 16.8591 32.265C16.8591 33.4139 17.7904 34.3452 18.9392 34.3452Z" fill="white"/>
<path d="M32.3473 33.0606C32.7869 31.9991 32.2829 30.7823 31.2215 30.3426C30.1601 29.903 28.9432 30.407 28.5036 31.4684C28.0639 32.5298 28.568 33.7467 29.6294 34.1863C30.6908 34.626 31.9076 34.122 32.3473 33.0606Z" fill="white"/>
</g>
<defs>
<clipPath id="clip0_91_49">
<rect width="49.3635" height="73.8072" fill="white" transform="translate(0 1.80334)"/>
</clipPath>
</defs>
</svg>
