<svg xmlns="http://www.w3.org/2000/svg" width="17.738" height="17.738" viewBox="0 0 17.738 17.738">
  <g id="Group_831" data-name="Group 831" transform="translate(-217.923 -238.932)">
    <g id="Icon_feather-settings" data-name="Icon feather-settings" transform="translate(217.173 238.182)">
      <path id="Path_3198" data-name="Path 3198" d="M17.929,15.714A2.214,2.214,0,1,1,15.714,13.5,2.214,2.214,0,0,1,17.929,15.714Z" transform="translate(-6.095 -6.095)" fill="none" stroke="#30346b" stroke-linecap="round" stroke-linejoin="round" stroke-width="1.5"/>
      <path id="Path_3199" data-name="Path 3199" d="M15.081,11.833a1.218,1.218,0,0,0,.244,1.343l.044.044A1.477,1.477,0,1,1,13.28,15.31l-.044-.044a1.228,1.228,0,0,0-2.081.871v.125a1.476,1.476,0,0,1-2.952,0V16.2a1.218,1.218,0,0,0-.8-1.115,1.218,1.218,0,0,0-1.343.244l-.044.044A1.477,1.477,0,1,1,3.928,13.28l.044-.044A1.228,1.228,0,0,0,3.1,11.154H2.976a1.476,1.476,0,1,1,0-2.952h.066a1.218,1.218,0,0,0,1.115-.8,1.218,1.218,0,0,0-.244-1.343l-.044-.044A1.477,1.477,0,1,1,5.958,3.928L6,3.973a1.218,1.218,0,0,0,1.343.244H7.4A1.218,1.218,0,0,0,8.143,3.1V2.976a1.476,1.476,0,1,1,2.952,0v.066a1.228,1.228,0,0,0,2.081.871l.044-.044A1.477,1.477,0,1,1,15.31,5.958L15.265,6a1.218,1.218,0,0,0-.244,1.343V7.4a1.218,1.218,0,0,0,1.115.738h.125a1.476,1.476,0,0,1,0,2.952H16.2a1.218,1.218,0,0,0-1.115.738Z" fill="none" stroke="#30346b" stroke-linecap="round" stroke-linejoin="round" stroke-width="1.5"/>
    </g>
  </g>
</svg>
