<svg xmlns="http://www.w3.org/2000/svg" width="33.743" height="33.743" viewBox="0 0 33.743 33.743">
  <path id="Icon_metro-warning" data-name="Icon metro-warning" d="M19.442,4.985l14.14,28.182H5.3L19.442,4.985Zm0-3.057A2.439,2.439,0,0,0,17.436,3.4L3.033,32.1c-1.1,1.962-.165,3.567,2.086,3.567H33.765c2.251,0,3.19-1.605,2.086-3.567h0L21.448,3.4a2.439,2.439,0,0,0-2.006-1.471Zm2.109,27.416a2.109,2.109,0,1,1-2.109-2.109A2.109,2.109,0,0,1,21.551,29.344Zm-2.109-4.218a2.109,2.109,0,0,1-2.109-2.109V16.691a2.109,2.109,0,1,1,4.218,0v6.327A2.109,2.109,0,0,1,19.442,25.126Z" transform="translate(-2.571 -1.928)" fill="#a60000"/>
</svg>
